<svg width="869" height="544" fill="none" xmlns="http://www.w3.org/2000/svg"><path d="M438.96 321.35c.295-1.085.37-2.201.411-3.316.144-3.889.459-7.766.845-11.636a203.226 203.226 0 0 1 1.919-14.176c1.921-11.193 4.672-22.178 8.339-32.93 8.861-25.991 22.233-49.411 40.045-70.301a214.92 214.92 0 0 1 20.529-20.959c.15-.132.307-.258.438-.367.345-.039.433.228.56.411 4.624 6.725 9.952 12.878 15.386 18.944.471.525.758 1.07.896 1.777a5253.971 5253.971 0 0 0 4.934 24.872c.138.696-.015 1.185-.508 1.716-18.583 19.98-31.546 43.104-38.763 69.431-2.08 7.585-3.555 15.288-4.536 23.093-1.135 9.019-1.483 18.069-1.121 27.137.777 19.528 4.858 38.355 12.333 56.42 8.573 20.72 20.837 38.984 36.824 54.702 20.472 20.126 44.548 34.077 72.228 41.769 4.319 1.2 8.688 2.169 13.079 3.055.35.07.714.072 1.052.104.317-.286.19-.624.177-.924-.249-5.77-.508-11.54-.867-17.306a721.96 721.96 0 0 0-1.568-20.63c-.546-6.03-1.178-12.051-1.828-18.071a822.734 822.734 0 0 0-1.773-15.171 906.878 906.878 0 0 0-2.063-15.13 1570.703 1570.703 0 0 0-2.709-18.199c-1.648-10.575-3.476-21.119-5.42-31.643a1363.746 1363.746 0 0 0-5.193-26.668 1453.1 1453.1 0 0 0-10.192-45.886c-.859-3.584-1.744-7.163-2.616-10.744-.046-.188-.162-.375-.042-.582.355.012.41.339.55.551 8.425 12.803 16.286 25.94 23.453 39.491 10.145 19.184 19.241 38.861 27.713 58.834 4.054 9.556 7.95 19.176 11.715 28.851.124.32.161.704.541.941.392-.337.463-.828.628-1.253a1026.8 1026.8 0 0 1 13.518-33.049c6.129-14.254 12.605-28.347 19.548-42.224 8.638-17.264 18.141-34.031 28.762-50.158.432-.656.799-1.364 1.37-1.974.214.413.029.702-.044 1.002-3.28 13.391-6.414 26.815-9.33 40.29a1444.863 1444.863 0 0 0-5.665 27.433c-2.191 11.169-4.263 22.361-6.152 33.587a1265.428 1265.428 0 0 0-4.019 25.416 1048.7 1048.7 0 0 0-3.26 23.949c-.73 5.888-1.37 11.788-1.99 17.688-.582 5.543-1.14 11.088-1.608 16.641a652.19 652.19 0 0 0-1.319 18.482c-.281 5.045-.569 10.089-.743 15.14-.008.24-.013.481-.036.72-.048.497.194.646.648.564 1.023-.188 2.051-.35 3.068-.562 24.531-5.125 46.875-15.128 66.747-30.406 30-23.066 50.008-52.896 59.904-89.459 2.129-7.867 3.591-15.865 4.468-23.963.925-8.545 1.237-17.112.827-25.708-1.615-33.834-12.531-64.345-32.647-91.577-3.601-4.876-7.504-9.507-11.647-13.931-.536-.572-.733-1.062-.565-1.893 1.675-8.285 3.289-16.581 4.908-24.877.137-.704.499-1.236.965-1.753 4.671-5.188 9.231-10.47 13.36-16.106.78-1.065 1.536-2.148 2.296-3.213.451.141.711.46 1.003.724 29.305 26.436 50.005 58.422 61.899 96.072 3.166 10.022 5.5 20.248 7.114 30.638.948 6.106 1.61 12.24 2.074 18.398.078 1.038.042 2.085.069 3.126.015.556.011 1.118.225 1.647v20.219c-.185.449-.205.925-.217 1.401-.039 1.723-.088 3.444-.221 5.165a216.45 216.45 0 0 1-3.366 24.766c-3.162 16.23-8.121 31.894-14.986 46.933-16.023 35.1-39.728 63.915-71.082 86.395-21.852 15.668-45.87 26.722-71.929 33.337a201.52 201.52 0 0 1-19.632 3.96c-3.167.475-6.339.899-9.523 1.247-3.545.386-7.096.674-10.654.905-1.955.127-3.924.113-5.862.473h-13.96c-.33-.184-.697-.165-1.056-.189-2.6-.175-5.197-.369-7.798-.512-3.683-.201-7.348-.596-11.002-1.057a218.53 218.53 0 0 1-14.334-2.304c-10.187-1.982-20.18-4.667-29.959-8.139-35.465-12.591-65.613-33.055-90.421-61.336-18.627-21.233-32.458-45.269-41.595-71.999-3.688-10.788-6.449-21.813-8.375-33.048a203.575 203.575 0 0 1-1.917-14.176c-.389-3.909-.707-7.826-.851-11.756-.04-1.074-.118-2.15-.404-3.196v-13.96Z" fill="#fff"/><path d="M653.637 382.731c-.379-.534-.477-1.094-.653-1.615a551.445 551.445 0 0 0-19.666-49.996c-6.614-14.675-14.165-28.853-22.377-42.692-5.893-9.931-11.639-19.948-17.608-29.835-7.84-12.988-16.323-25.541-25.328-37.746-9.169-12.43-18.651-24.614-28.497-36.512-4.886-5.903-9.858-11.73-14.966-17.44-1.606-1.798-2.964-3.79-4.348-5.758-2.908-4.137-5.636-8.386-7.829-12.958-2.32-4.838-3.463-9.967-3.841-15.299-.242-3.4-.58-6.792-.875-10.188-.604-6.952-1.212-13.903-1.803-20.855-.084-.99-.34-1.976-.168-3.094.423.76.47 1.518.64 2.236 1.164 4.921 2.542 9.777 4.62 14.402 2.09 4.647 4.867 8.852 8.356 12.564 4.782 5.087 9.467 10.258 14.115 15.464 9.347 10.475 18.549 21.075 27.452 31.931 6.613 8.063 13.044 16.272 19.424 24.52 5.005 6.471 10.089 12.883 14.929 19.481 6.098 8.315 11.875 16.846 17.382 25.562a425.445 425.445 0 0 1 8.102 13.373c.703 1.208 1.822 1.652 2.922 1.205.953-.385 1.293-1.336.828-2.232-6.807-13.11-14.139-25.913-22.671-37.981-9.839-13.917-19.516-27.951-29.713-41.611-6.384-8.55-13.058-16.874-19.803-25.141a2448.14 2448.14 0 0 1-31.604-39.585c-3.261-4.17-6.757-8.151-9.955-12.374-3.804-5.024-7.449-10.146-10.342-15.772-2.702-5.25-4.428-10.808-5.536-16.589-1.162-6.07-2.134-12.163-2.622-18.324-.408-5.164-.396-10.339-.342-15.513.088-8.427.541-16.836 1.221-25.235.24-2.95.453-5.901.845-9.124.227.716.166 1.173.159 1.62-.063 4.573-.112 9.145-.028 13.719.131 7.061.465 14.112 1.489 21.108.998 6.808 3.139 13.24 6.532 19.245.903 1.597 2.226 2.836 3.428 4.173 10.46 11.631 20.747 23.415 30.903 35.312a1693.342 1693.342 0 0 1 32.928 39.751c10.793 13.452 21.359 27.081 31.549 40.999 5.78 7.894 11.52 15.82 16.908 23.992 7.011 10.63 13.032 21.816 18.519 33.294 6.159 12.886 11.543 26.092 16.32 39.548.316.891.523 1.83.996 2.69.399-.182.416-.523.513-.803 4.002-11.516 8.484-22.84 13.498-33.953 5.81-12.878 12.254-25.423 19.797-37.383 4.709-7.465 9.864-14.628 15.025-21.783 14.412-19.978 29.61-39.35 45.199-58.418a1765 1765 0 0 1 35.792-42.372c6.799-7.803 13.64-15.567 20.601-23.224 1.066-1.172 1.746-2.592 2.448-3.986 2.935-5.817 4.756-11.974 5.562-18.44 1.37-11.013 1.538-22.073 1.261-33.149-.016-.6-.003-1.201-.003-1.887.28.238.302.5.326.759 1.218 13.507 2.105 27.028 1.945 40.603-.119 10.108-1.543 20.048-3.668 29.912-1.64 7.606-4.984 14.44-9.22 20.885-3.22 4.899-6.777 9.553-10.525 14.055-4.726 5.672-9.203 11.538-13.786 17.321-8.045 10.155-16.136 20.271-24.346 30.292a707.823 707.823 0 0 0-31.859 41.961c-5.829 8.304-11.777 16.526-17.549 24.87-7.858 11.36-14.776 23.288-21.112 35.556-.203.392-.435.769-.619 1.169-.352.763-.151 1.405.555 1.865.924.6 2.21.39 2.925-.496.176-.216.305-.47.447-.712a443.732 443.732 0 0 1 24.714-37.86c5.12-7.04 10.535-13.854 15.867-20.732 7.668-9.889 15.389-19.736 23.424-29.332a1108.564 1108.564 0 0 1 24.44-28.176c4.336-4.837 8.737-9.617 13.153-14.384 4.878-5.261 8.207-11.434 10.364-18.262a117.211 117.211 0 0 0 2.622-9.746c.058-.264.021-.568.297-.778.241.104.14.322.127.477-.596 6.751-1.206 13.5-1.799 20.251-.425 4.832-.835 9.666-1.239 14.501-.51 6.128-2.308 11.849-5.318 17.209-2.854 5.083-6.063 9.931-9.676 14.494-2.212 2.796-4.684 5.385-7.018 8.086-8.472 9.804-16.64 19.858-24.585 30.092-8.485 10.932-16.739 22.036-24.551 33.462-6.905 10.1-13.262 20.549-19.477 31.084-6.255 10.602-12.513 21.202-18.583 31.91-7.838 13.828-14.594 28.188-20.776 42.823a559.96 559.96 0 0 0-14.612 38.552c-.109.327-.105.724-.573.967Z" fill="#fff"/><path d="M653.698 258.048c-.375-.331-.42-.742-.551-1.106-4.164-11.545-8.817-22.885-14.146-33.945-5.162-10.708-11.103-20.963-17.668-30.871-12.304-18.57-25.634-36.381-39.563-53.753-9.36-11.672-19.012-23.099-28.871-34.352-.204-.233-.494-.416-.558-.8.245-.371.678-.508 1.046-.724a257.485 257.485 0 0 1 31.082-15.47c11.004-4.583 22.273-8.353 33.9-11.018 8.726-2 17.542-3.399 26.496-3.84 7.781-.384 15.557-.35 23.316.395 8.952.858 17.762 2.525 26.456 4.817 15.873 4.183 31.02 10.247 45.656 17.635a241.67 241.67 0 0 1 13.83 7.532c.336.198.736.318.962.681-.066.397-.392.604-.623.868-10.711 12.212-21.161 24.643-31.273 37.359-12.559 15.793-24.534 32.012-35.84 48.733-11.531 17.056-20.807 35.257-28.382 54.363a455.213 455.213 0 0 0-4.722 12.48c-.12.332-.146.716-.547 1.016Zm114.163-56.456c.026.705-.265 1.332-.444 1.968a2876.587 2876.587 0 0 0-17.016 63.26c-4.158 16.183-8.185 32.397-12.028 48.659-4.148 17.548-8.114 35.136-11.821 52.782a1796.983 1796.983 0 0 0-8.44 42.688 1380.824 1380.824 0 0 0-5.665 32.935c-1.6 10.015-3.035 20.053-4.358 30.108-.073.556-.18 1.113-.193 1.672-.017.764-.415 1.081-1.104 1.324-5.779 2.028-11.64 3.769-17.611 5.133-.62.143-1.244.271-1.865.404-.347-.38-.195-.793-.177-1.168.229-4.966.529-9.929.889-14.888a709.434 709.434 0 0 1 2.995-31.492 855.954 855.954 0 0 1 2.756-21.102 963.506 963.506 0 0 1 6.173-37.735c2.016-10.996 4.233-21.952 6.583-32.883a1255.267 1255.267 0 0 1 10.184-43.549 1185.218 1185.218 0 0 1 12.698-46.361 10.195 10.195 0 0 1 1.446-3.008 888.908 888.908 0 0 1 35.806-47.567c.303-.373.614-.74.931-1.101.043-.05.144-.046.261-.079Zm-228.176-.139c1.291 1.6 2.499 3.085 3.693 4.581a885.355 885.355 0 0 1 25.771 33.9c2.584 3.575 5.109 7.191 7.671 10.783.52.728.868 1.518 1.12 2.376a1258.035 1258.035 0 0 1 14.57 53.844 1206.876 1206.876 0 0 1 11.716 52.328c1.85 9.23 3.564 18.485 5.175 27.761a935.8 935.8 0 0 1 5.232 33.872c.728 5.361 1.329 10.741 1.983 16.112 1.206 9.912 2.088 19.856 2.817 29.812.36 4.919.657 9.843.86 14.772.04.965.036.989-.991.764a146.593 146.593 0 0 1-13.769-3.735c-1.673-.542-3.321-1.168-5.004-1.677-.703-.213-.927-.613-1.012-1.281-.561-4.374-1.101-8.75-1.743-13.112-1.112-7.574-2.238-15.146-3.457-22.703-1.168-7.239-2.444-14.461-3.703-21.687-1.666-9.553-3.497-19.076-5.38-28.589a1799.65 1799.65 0 0 0-6.389-30.843 2195.45 2195.45 0 0 0-7.844-34.95c-4.22-18.108-8.663-36.16-13.265-54.174-4.742-18.557-9.696-37.058-14.79-55.521-1.076-3.901-2.168-7.799-3.253-11.696-.064-.231-.175-.452-.008-.937Z" fill="#fff"/><path d="M764.629 92.48c-.102.496-.456.725-.714 1.016-1.171 1.32-2.356 2.627-3.532 3.941-.684.766-.683.772-1.587.335-2.704-1.31-5.392-2.655-8.112-3.932-16.901-7.935-34.304-14.513-52.373-19.277-7.599-2.004-15.272-3.668-23.032-4.9-3.918-.623-7.847-1.163-11.799-1.528-.153-.015-.304-.05-.481-.078.146-.254.354-.197.525-.196 4.251.035 8.495.21 12.739.438 3.882.208 7.76.486 11.63.85 11.219 1.055 22.356 2.64 33.25 5.596 12.761 3.464 24.952 8.42 36.789 14.274 1.903.941 3.785 1.924 5.675 2.893.352.18.69.383 1.022.568ZM644.69 68.052c-3.462.34-6.675.764-9.884 1.224-7.427 1.062-14.764 2.565-22.046 4.36-12.316 3.038-24.341 6.978-36.14 11.62a334.285 334.285 0 0 0-27.761 12.4c-1.085.546-.913.808-1.965-.39-1.374-1.562-2.778-3.101-4.25-4.74 1.575-.822 3.052-1.616 4.55-2.37 11.002-5.546 22.308-10.351 34.097-13.972 6.556-2.015 13.228-3.534 19.991-4.676 7.87-1.33 15.79-2.232 23.745-2.824 6.119-.456 12.245-.76 18.381-.822.355-.004.72-.074 1.282.19ZM70.381 492.046H46.84c-12.918 0-23.952-4.576-33.107-13.733C4.575 469.159 0 458.123 0 445.209v-70.383h46.839v70.383c0 3.106 1.141 5.845 3.433 8.214 2.287 2.372 5.064 3.555 8.339 3.555 3.268 0 6.045-1.183 8.336-3.555 2.288-2.369 3.434-5.108 3.434-8.214V175.701H49.045l11.772-35.312h56.402v304.82c0 12.914-4.538 23.95-13.611 33.104-9.072 9.157-20.15 13.733-33.227 13.733Zm106.919 0h-47.084V140.389H177.3v351.657Zm84.849 0h-23.542c-12.918 0-23.952-4.576-33.107-13.733-9.157-9.154-13.732-20.19-13.732-33.104v-38.012l46.839-30.164v68.176c0 3.106 1.141 5.845 3.433 8.214 2.287 2.372 5.064 3.555 8.339 3.555 3.268 0 6.045-1.183 8.336-3.555 2.288-2.369 3.434-5.108 3.434-8.214v-70.872c0-8.991-1.024-15.408-3.066-19.251-2.046-3.84-4.947-6.989-8.704-9.441l-27.222-20.599c-12.592-9.32-20.966-17.572-25.134-24.768-4.171-7.192-6.255-17.328-6.255-30.408v-82.399c0-13.077 4.575-24.192 13.732-33.349 9.155-9.155 20.189-13.733 33.107-13.733h23.542c13.076 0 24.155 4.578 33.227 13.733 9.073 9.157 13.611 20.272 13.611 33.349v38.012l-46.838 29.918v-67.93c0-3.268-1.146-6.045-3.434-8.336-2.291-2.288-5.068-3.434-8.336-3.434-3.275 0-6.052 1.146-8.339 3.434-2.292 2.291-3.433 5.068-3.433 8.336v70.627c0 8.992 1.02 15.411 3.065 19.249 2.041 3.846 4.943 7.074 8.707 9.687a1725.517 1725.517 0 0 1 27.218 20.355c12.588 9.318 20.967 17.576 25.138 24.768 4.168 7.196 6.252 17.33 6.252 30.409v82.643c0 12.914-4.538 23.95-13.611 33.104-9.072 9.157-20.151 13.733-33.227 13.733Zm129.972 0h-23.543c-12.914 0-23.952-4.576-33.104-13.733-9.157-9.154-13.733-20.19-13.733-33.104V187.471c0-13.077 4.576-24.192 13.733-33.349 9.152-9.155 20.19-13.733 33.104-13.733h23.543c13.077 0 24.156 4.578 33.229 13.733 9.074 9.157 13.611 20.272 13.611 33.349v38.012l-46.84 29.918v-67.93c0-3.268-1.147-6.045-3.432-8.336-2.293-2.288-5.071-3.434-8.339-3.434-3.106 0-5.848 1.146-8.214 3.434-2.372 2.291-3.558 5.068-3.558 8.336v257.738c0 3.106 1.186 5.845 3.558 8.214 2.366 2.372 5.108 3.555 8.214 3.555 3.268 0 6.046-1.183 8.339-3.555 2.285-2.369 3.432-5.108 3.432-8.214v-68.176l46.84 30.164v38.012c0 12.914-4.537 23.95-13.611 33.104-9.073 9.157-20.152 13.733-33.229 13.733Z" fill="#fff"/></svg>